<svg width="119" height="87" viewBox="0 0 119 87" fill="none" xmlns="http://www.w3.org/2000/svg">
<path d="M118.977 24.7622H0.00549316V66.1615H118.977V24.7622Z" fill="#336BFB"/>
<path d="M88.388 66.1252V86.6589H111.187C115.49 86.6589 118.978 83.1716 118.978 78.8679V66.1252H88.3902H88.388Z" fill="#61E46D"/>
<path d="M0 66.1252V78.8679C0 83.1716 3.48731 86.6589 7.79093 86.6589H88.3892V66.1252H0Z" fill="#CCDAFE"/>
<path d="M7.79093 0C3.48731 0 0 3.48731 0 7.79093V24.7204H88.387V0H7.79093Z" fill="#61E46D"/>
<path d="M118.978 7.79093C118.978 3.48731 115.49 0 111.187 0H88.388L88.388 24.7204H118.975L118.975 7.79093H118.978Z" fill="#CCDAFE"/>
<path d="M12.187 12.1582H44.028C46.145 12.1582 47.8629 13.8761 47.8629 15.9931V66.1251H8.34979V15.9954C8.34979 13.8783 10.0677 12.1604 12.1847 12.1604L12.187 12.1582Z" fill="#D8F8DB"/>
<path d="M105.486 32.7269H61.5707C60.1018 32.7269 58.9109 33.9177 58.9109 35.3867C58.9109 36.8557 60.1018 38.0465 61.5707 38.0465H105.486C106.955 38.0465 108.146 36.8557 108.146 35.3867C108.146 33.9177 106.955 32.7269 105.486 32.7269Z" fill="#8FE4FF"/>
<path d="M78.4121 73.7323H11.0096C9.54061 73.7323 8.34979 74.9231 8.34979 76.3921C8.34979 77.861 9.54061 79.0518 11.0096 79.0518H78.4121C79.8811 79.0518 81.0719 77.861 81.0719 76.3921C81.0719 74.9231 79.8811 73.7323 78.4121 73.7323Z" fill="#336BFB"/>
<path d="M105.486 42.8054H61.5707C60.1018 42.8054 58.9109 43.9962 58.9109 45.4652C58.9109 46.9341 60.1018 48.125 61.5707 48.125H105.486C106.955 48.125 108.146 46.9341 108.146 45.4652C108.146 43.9962 106.955 42.8054 105.486 42.8054Z" fill="#CCDAFE"/>
<path d="M89.4109 52.8857H61.5707C60.1018 52.8857 58.9109 54.0766 58.9109 55.5455C58.9109 57.0145 60.1018 58.2053 61.5707 58.2053H89.4109C90.8798 58.2053 92.0706 57.0145 92.0706 55.5455C92.0706 54.0766 90.8798 52.8857 89.4109 52.8857Z" fill="#CCDAFE"/>
<path d="M31.5477 52.399H15.1181L8.34979 56.2811V66.1262H47.8629C47.4368 65.0251 31.5477 52.399 31.5477 52.399Z" fill="#001C64"/>
<path d="M39.2174 27.0267C39.0515 23.8735 36.4612 21.3976 33.3036 21.3797C28.2218 21.3505 21.4804 21.3595 21.4804 21.6152C21.4804 22.0256 17.5804 29.8255 17.5804 29.8255L17.3225 43.5303V44.7839C17.3225 47.4796 16.5578 50.1214 15.1158 52.3999L31.4781 59.3812C31.4781 59.3812 32.3415 50.1191 32.3482 49.2176C32.3527 48.6839 32.8394 48.2824 33.3642 48.3811L35.2726 48.7377C36.9613 49.0516 38.5559 47.8541 38.7263 46.1452L39.3363 39.9846L41.3883 39.0315C41.8593 38.8117 42.0992 38.2802 41.9535 37.7824L40.2423 34.8782C39.6256 33.8308 39.3116 32.6333 39.3363 31.4178C39.361 30.2583 39.3027 28.6346 39.2174 27.0312V27.0267Z" fill="#99B5FD"/>
<path d="M20.6015 17.1852C17.6143 17.1852 15.1945 19.6072 15.1945 22.5922L27.9775 27.4408C28.5202 27.0573 29.1728 26.8128 29.8927 26.7747L35.376 26.472C38.6637 26.2903 41.236 23.5722 41.236 20.2823V17.1852H20.6015Z" fill="#002A96"/>
<path d="M34.331 41.0119C31.5367 41.5861 28.7715 39.9153 27.9799 37.177L26.8877 33.3915L26.4728 31.1129C26.2037 29.6418 26.8496 28.2379 27.9776 27.4417L15.1946 22.5931C11.3686 25.3449 10.1643 30.5007 12.3756 34.663L17.7557 44.7908L22.6715 39.2246C20.7003 39.0093 19.182 37.3923 19.0855 35.4121L19.0766 35.2371C19.0945 33.4789 20.458 32.0279 22.2118 31.9001C23.6605 31.7947 24.8447 33.0416 24.6652 34.4836L24.6585 34.5419L24.1046 39.7022C23.7794 42.7298 25.4524 45.6206 28.24 46.8473L33.5394 49.1774C35.1451 49.8838 37.0267 49.4129 38.1099 48.0337C38.8163 47.1344 39.211 46.0287 39.2357 44.8872L39.3366 39.9781L34.3333 41.0075L34.331 41.0119Z" fill="#001C64"/>
<path fill-rule="evenodd" clip-rule="evenodd" d="M96.3287 12.3584C96.3287 7.66181 100.196 3.85449 104.967 3.85449V20.8622C100.196 20.8622 96.3287 17.0549 96.3287 12.3584ZM98.9201 12.3584C98.9201 9.0708 101.627 6.40569 104.967 6.40567V18.3111C101.627 18.3111 98.9201 15.646 98.9201 12.3584Z" fill="#336BFB"/>
<path d="M104.967 8.95675C103.058 8.95681 101.511 10.4797 101.511 12.3583C101.511 14.2369 103.058 15.7598 104.967 15.7599V8.95675Z" fill="#336BFB"/>
<path fill-rule="evenodd" clip-rule="evenodd" d="M111.013 12.3583C111.013 15.6459 108.306 18.3111 104.967 18.3111V6.40567C108.306 6.40569 111.013 9.07076 111.013 12.3583ZM108.422 12.3584C108.422 14.237 106.875 15.7599 104.967 15.76L104.967 8.95688C106.875 8.95693 108.422 10.4798 108.422 12.3584Z" fill="#336BFB"/>
</svg>
