<svg width="24" height="24" viewBox="0 0 24 24" fill="none" xmlns="http://www.w3.org/2000/svg">
<g clip-path="url(#clip0_1461_6524)">
<path d="M22 10.1111V19.1111C22 19.3469 21.8946 19.573 21.7071 19.7397C21.5196 19.9064 21.2652 20 21 20H3C2.73478 20 2.48043 19.9064 2.29289 19.7397C2.10536 19.573 2 19.3469 2 19.1111V10.1111H22ZM22 7.55556H2V4.88889C2 4.65314 2.10536 4.42705 2.29289 4.26035C2.48043 4.09365 2.73478 4 3 4H21C21.2652 4 21.5196 4.09365 21.7071 4.26035C21.8946 4.42705 22 4.65314 22 4.88889V7.55556Z" fill="#040919"/>
</g>
<defs>
<clipPath id="clip0_1461_6524">
<rect width="24" height="24" fill="white"/>
</clipPath>
</defs>
</svg>
